<?xml version="1.0" encoding="utf-8"?>
<!-- Generator: Adobe Illustrator 22.1.0, SVG Export Plug-In . SVG Version: 6.00 Build 0)  -->
<svg version="1.2" baseProfile="tiny" id="Layer_1" xmlns="http://www.w3.org/2000/svg" xmlns:xlink="http://www.w3.org/1999/xlink"
	 x="0px" y="0px" viewBox="0 0 1019 558" xml:space="preserve">
<g>
	<g>
		<path d="M422.1,5.7c1.5-2,3.8-3,6.9-3c3,0,5.3,1,6.9,3c1.5,2,2.3,5.1,2.3,9.5s-0.8,7.5-2.3,9.4c-1.5,1.9-3.8,2.8-6.9,2.8
			c-3.1,0-5.4-0.9-6.9-2.8c-1.5-1.9-2.3-5-2.3-9.4S420.6,7.6,422.1,5.7z M433.1,15.1c0-3-0.3-5-0.9-6.2C431.6,7.6,430.5,7,429,7
			s-2.5,0.6-3.2,1.8c-0.6,1.2-1,3.3-1,6.2c0,3,0.3,5,1,6.2c0.6,1.2,1.7,1.8,3.2,1.8c1.5,0,2.5-0.6,3.1-1.8
			C432.8,20.1,433.1,18,433.1,15.1z"/>
		<path d="M441.1,26.9v-6h5.2v6H441.1z"/>
		<path d="M451.5,5.7c1.5-2,3.8-3,6.9-3c3,0,5.3,1,6.9,3c1.5,2,2.3,5.1,2.3,9.5s-0.8,7.5-2.3,9.4c-1.5,1.9-3.8,2.8-6.9,2.8
			c-3.1,0-5.4-0.9-6.9-2.8c-1.5-1.9-2.3-5-2.3-9.4S449.9,7.6,451.5,5.7z M462.5,15.1c0-3-0.3-5-0.9-6.2c-0.6-1.2-1.7-1.8-3.1-1.8
			s-2.5,0.6-3.2,1.8c-0.6,1.2-1,3.3-1,6.2c0,3,0.3,5,1,6.2c0.6,1.2,1.7,1.8,3.2,1.8c1.5,0,2.5-0.6,3.1-1.8
			C462.2,20.1,462.5,18,462.5,15.1z"/>
		<path d="M486.6,6.3c-2.6,0-3.9,0.9-3.9,2.6c0,0.8,0.3,1.4,1,1.8s2.2,1,4.6,1.8c2.4,0.8,4.1,1.6,5,2.6c1,1,1.4,2.5,1.4,4.5
			c0,2.6-0.8,4.5-2.3,5.8c-1.6,1.3-3.6,2-6.1,2c-1.9,0-4.2-0.3-6.9-0.9l-1.3-0.3l0.5-3.9c3.2,0.4,5.7,0.6,7.4,0.6
			c2.5,0,3.8-1.1,3.8-3.2c0-0.8-0.3-1.4-0.9-1.8c-0.6-0.4-1.8-0.9-3.5-1.4c-2.8-0.8-4.7-1.7-5.9-2.8c-1.1-1.1-1.7-2.6-1.7-4.6
			c0-2.4,0.7-4.3,2.2-5.5c1.5-1.2,3.5-1.8,6.1-1.8c1.8,0,4,0.2,6.8,0.7l1.3,0.3l-0.4,3.9C490.4,6.5,488,6.3,486.6,6.3z"/>
		<path d="M507.6,19.8h-4v7.1h-5V2.4h9c5.8,0,8.7,2.8,8.7,8.5c0,2.9-0.7,5-2.2,6.6C512.7,19,510.5,19.8,507.6,19.8z M503.6,15.5h4
			c2.5,0,3.7-1.5,3.7-4.6c0-1.5-0.3-2.6-0.9-3.3c-0.6-0.7-1.5-1-2.8-1h-4V15.5z"/>
		<path d="M533.8,26.9h-13.9V2.4h5v20.1h9V26.9z"/>
		<path d="M534.8,26.9l5.5-24.5h9.4l5.5,24.5h-5l-1-4.4h-8.6l-1,4.4H534.8z M544.1,6.5l-2.5,11.6h6.7l-2.5-11.6H544.1z"/>
		<path d="M565.8,6.3c-2.6,0-3.9,0.9-3.9,2.6c0,0.8,0.3,1.4,1,1.8s2.2,1,4.6,1.8c2.4,0.8,4.1,1.6,5,2.6c1,1,1.4,2.5,1.4,4.5
			c0,2.6-0.8,4.5-2.3,5.8c-1.6,1.3-3.6,2-6.1,2c-1.9,0-4.2-0.3-6.9-0.9l-1.3-0.3l0.5-3.9c3.2,0.4,5.7,0.6,7.4,0.6
			c2.5,0,3.8-1.1,3.8-3.2c0-0.8-0.3-1.4-0.9-1.8c-0.6-0.4-1.8-0.9-3.5-1.4c-2.8-0.8-4.7-1.7-5.9-2.8c-1.1-1.1-1.7-2.6-1.7-4.6
			c0-2.4,0.7-4.3,2.2-5.5c1.5-1.2,3.5-1.8,6.1-1.8c1.8,0,4,0.2,6.8,0.7l1.3,0.3l-0.4,3.9C569.6,6.5,567.2,6.3,565.8,6.3z"/>
		<path d="M591.9,26.9V16.8h-9.1v10.2h-5V2.4h5v10h9.1v-10h5v24.5H591.9z"/>
	</g>
	<g>
		<path d="M445.6,90.2v23.8h-5V95.8l-5.1,3.3l-2.3-3.7l7.8-5.2H445.6z"/>
		<path d="M452.7,113.9v-6h5.2v6H452.7z"/>
		<path d="M463.1,92.7c1.5-2,3.8-3,6.9-3c3,0,5.3,1,6.9,3c1.5,2,2.3,5.1,2.3,9.5s-0.8,7.5-2.3,9.4c-1.5,1.9-3.8,2.8-6.9,2.8
			c-3.1,0-5.4-0.9-6.9-2.8c-1.5-1.9-2.3-5-2.3-9.4S461.5,94.6,463.1,92.7z M474.1,102.1c0-3-0.3-5-0.9-6.2c-0.6-1.2-1.7-1.8-3.1-1.8
			s-2.5,0.6-3.2,1.8c-0.6,1.2-1,3.3-1,6.2c0,3,0.3,5,1,6.2c0.6,1.2,1.7,1.8,3.2,1.8c1.5,0,2.5-0.6,3.1-1.8
			C473.8,107.1,474.1,105,474.1,102.1z"/>
		<path d="M490.6,113.9V89.4h5v24.5H490.6z"/>
		<path d="M500.9,113.9V89.4h8.4l5.9,20.2h0.4V89.4h5v24.5h-8.2l-6.1-20.2h-0.4v20.2H500.9z"/>
		<path d="M523.7,93.8v-4.4h18v4.4h-6.5v20.1h-5V93.8H523.7z"/>
		<path d="M549.8,105.7v8.2h-5V89.4h9.5c5.8,0,8.6,2.7,8.6,8.1c0,3.2-1.2,5.5-3.6,7.1l3.5,9.4h-5.4l-2.8-8.2H549.8z M557,100.4
			c0.6-0.7,0.9-1.7,0.9-2.8c0-1.2-0.3-2.1-0.9-2.8c-0.6-0.7-1.5-1-2.6-1h-4.5v7.8h4.6C555.6,101.5,556.5,101.1,557,100.4z"/>
		<path d="M584.1,111.3c-1.5,2-4.1,3-7.9,3s-6.3-1-7.9-3c-1.5-2-2.3-5.2-2.3-9.5c0-4.3,0.8-7.5,2.3-9.6c1.5-2.1,4.1-3.1,7.9-3.1
			s6.3,1.1,7.9,3.1c1.5,2.1,2.3,5.3,2.3,9.6C586.4,106.1,585.6,109.3,584.1,111.3z M572.2,108.1c0.7,1.3,2,1.9,4,1.9
			c1.9,0,3.3-0.6,4-1.9c0.7-1.3,1.1-3.4,1.1-6.3c0-3-0.4-5.1-1.1-6.5c-0.7-1.3-2-2-4-2c-1.9,0-3.2,0.7-4,2c-0.7,1.3-1.1,3.5-1.1,6.5
			C571.2,104.8,571.5,106.9,572.2,108.1z"/>
	</g>
	<g>
		<path d="M229,236.2v23.8h-5v-18.1l-5.1,3.3l-2.3-3.7l7.8-5.2H229z"/>
		<path d="M236.1,259.9v-6h5.2v6H236.1z"/>
		<path d="M258.4,236.2v23.8h-5v-18.1l-5.1,3.3l-2.3-3.7l7.8-5.2H258.4z"/>
		<path d="M272.1,235.4h5.2l3,20.2h0.5l4.4-20.2h5.8l4.4,20.2h0.5l3-20.2h5.2l-4.7,24.5H292l-3.9-18.6l-3.9,18.6h-7.5L272.1,235.4z"
			/>
		<path d="M304.8,259.9l5.5-24.5h9.4l5.5,24.5h-5l-1-4.4h-8.6l-1,4.4H304.8z M314.2,239.5l-2.5,11.6h6.7l-2.5-11.6H314.2z"/>
		<path d="M326.5,259.9l5.5-24.5h9.4l5.5,24.5h-5l-1-4.4h-8.6l-1,4.4H326.5z M335.9,239.5l-2.5,11.6h6.7l-2.5-11.6H335.9z"/>
		<path d="M355.2,251.7v8.2h-5v-24.5h9.5c5.8,0,8.6,2.7,8.6,8.1c0,3.2-1.2,5.5-3.6,7.1l3.5,9.4h-5.4l-2.8-8.2H355.2z M362.4,246.4
			c0.6-0.7,0.9-1.7,0.9-2.8c0-1.2-0.3-2.1-0.9-2.8c-0.6-0.7-1.5-1-2.6-1h-4.5v7.8h4.6C361,247.5,361.8,247.1,362.4,246.4z"/>
		<path d="M389.5,257.3c-1.5,2-4.1,3-7.9,3s-6.3-1-7.9-3c-1.5-2-2.3-5.2-2.3-9.5c0-4.3,0.8-7.5,2.3-9.6c1.5-2.1,4.1-3.1,7.9-3.1
			s6.3,1.1,7.9,3.1c1.5,2.1,2.3,5.3,2.3,9.6C391.8,252.1,391,255.3,389.5,257.3z M377.6,254.1c0.7,1.3,2,1.9,4,1.9
			c1.9,0,3.3-0.6,4-1.9c0.7-1.3,1.1-3.4,1.1-6.3c0-3-0.4-5.1-1.1-6.5c-0.7-1.3-2-2-4-2c-1.9,0-3.2,0.7-4,2c-0.7,1.3-1.1,3.5-1.1,6.5
			C376.6,250.8,376.9,252.9,377.6,254.1z"/>
		<path d="M396,259.9v-24.5h8.5l4.3,17.9l4.3-17.9h8.5v24.5h-5V241h-0.5l-4.8,17.9h-5l-4.8-17.9H401v18.9H396z"/>
	</g>
	<g>
		<path d="M594.1,236.2v23.8h-5v-18.1l-5.1,3.3l-2.3-3.7l7.8-5.2H594.1z"/>
		<path d="M601.2,259.9v-6h5.2v6H601.2z"/>
		<path d="M626.1,259.9h-15.4v-4.2l5.1-5.1c1.8-1.8,3.1-3.3,3.8-4.2c0.7-1,1.1-2,1.1-3.1c0-1.1-0.3-1.9-0.9-2.4
			c-0.6-0.5-1.4-0.7-2.5-0.7c-1.6,0-3.4,0.1-5.3,0.4l-0.9,0.1l-0.3-3.9c2.4-0.7,4.8-1.1,7.3-1.1c5,0,7.6,2.3,7.6,6.8
			c0,1.8-0.4,3.3-1.2,4.6c-0.8,1.3-2.2,2.9-4.2,4.7l-4.1,3.7h9.9V259.9z"/>
		<path d="M639.1,259.9v-24.5h15.6v4.3h-10.7v7.2h8.7v4.3h-8.7v8.6H639.1z"/>
		<path d="M658.2,259.9v-24.5h15.8v4.3h-10.9v5.7h8.7v4.2h-8.7v5.9h10.9v4.3H658.2z"/>
		<path d="M676.1,259.9l5.5-24.5h9.4l5.5,24.5h-5l-1-4.4h-8.6l-1,4.4H676.1z M685.5,239.5l-2.5,11.6h6.7l-2.5-11.6H685.5z"/>
		<path d="M696.3,239.8v-4.4h18v4.4h-6.5v20.1h-5v-20.1H696.3z"/>
		<path d="M722.2,251.7c0,2.9,1.5,4.3,4.4,4.3c2.9,0,4.4-1.4,4.4-4.3v-16.3h5v16.2c0,3-0.8,5.2-2.3,6.6c-1.5,1.4-3.9,2.1-7,2.1
			c-3.1,0-5.5-0.7-7-2.1c-1.5-1.4-2.3-3.6-2.3-6.6v-16.2h5V251.7z"/>
		<path d="M746,251.7v8.2h-5v-24.5h9.5c5.8,0,8.6,2.7,8.6,8.1c0,3.2-1.2,5.5-3.6,7.1l3.5,9.4h-5.4l-2.8-8.2H746z M753.2,246.4
			c0.6-0.7,0.9-1.7,0.9-2.8c0-1.2-0.3-2.1-0.9-2.8c-0.6-0.7-1.5-1-2.6-1H746v7.8h4.6C751.8,247.5,752.6,247.1,753.2,246.4z"/>
		<path d="M763.3,259.9v-24.5h15.8v4.3h-10.9v5.7h8.7v4.2h-8.7v5.9h10.9v4.3H763.3z"/>
		<path d="M790.8,239.3c-2.6,0-3.9,0.9-3.9,2.6c0,0.8,0.3,1.4,1,1.8s2.2,1,4.6,1.8c2.4,0.8,4.1,1.6,5,2.6c1,1,1.4,2.5,1.4,4.5
			c0,2.6-0.8,4.5-2.3,5.8c-1.6,1.3-3.6,2-6.1,2c-1.9,0-4.2-0.3-6.9-0.9l-1.3-0.3l0.5-3.9c3.2,0.4,5.7,0.6,7.4,0.6
			c2.5,0,3.8-1.1,3.8-3.2c0-0.8-0.3-1.4-0.9-1.8c-0.6-0.4-1.8-0.9-3.5-1.4c-2.8-0.8-4.7-1.7-5.9-2.8c-1.1-1.1-1.7-2.6-1.7-4.6
			c0-2.4,0.7-4.3,2.2-5.5c1.5-1.2,3.5-1.8,6.1-1.8c1.8,0,4,0.2,6.8,0.7l1.3,0.3l-0.4,3.9C794.6,239.5,792.2,239.3,790.8,239.3z"/>
	</g>
	<g>
		<path d="M437.1,315.2v23.8h-5v-18.1l-5.1,3.3l-2.3-3.7l7.8-5.2H437.1z"/>
		<path d="M444.3,338.9v-6h5.2v6H444.3z"/>
		<path d="M453.7,316c2.2-0.9,4.7-1.3,7.4-1.3c2.7,0,4.7,0.5,6,1.6c1.2,1,1.9,2.7,1.9,5s-0.9,4.1-2.8,5.3c1.2,0.6,2,1.3,2.5,1.9
			c0.5,0.7,0.7,1.7,0.7,3.2c0,2.6-0.6,4.5-1.9,5.7c-1.3,1.2-3.3,1.9-6.2,1.9c-2.1,0-4.3-0.3-6.6-0.9l-1.2-0.3l0.3-3.8
			c2.7,0.5,4.9,0.7,6.8,0.7c2.5,0,3.7-1.1,3.7-3.2c0-0.9-0.3-1.6-1-2.1c-0.6-0.5-1.5-0.8-2.5-0.8H456v-4.1h4.8c0.8,0,1.5-0.3,2.1-1
			c0.6-0.7,0.9-1.4,0.9-2.2c0-1.7-1.2-2.6-3.6-2.6c-1.7,0-3.4,0.2-5.3,0.5l-0.9,0.1L453.7,316z"/>
		<path d="M490.4,338.9h-8.2v-24.5h8.2c2.1,0,3.9,0.2,5.2,0.7c1.4,0.4,2.4,1.2,3.2,2.2c0.8,1,1.3,2.2,1.6,3.6
			c0.3,1.4,0.4,3.2,0.4,5.4c0,2.2-0.1,4-0.4,5.5c-0.3,1.5-0.8,2.7-1.5,3.9c-0.7,1.1-1.8,2-3.2,2.5
			C494.4,338.7,492.6,338.9,490.4,338.9z M495.7,329.2c0-0.8,0.1-1.8,0.1-3.2s0-2.4-0.1-3.3c-0.1-0.8-0.3-1.6-0.7-2.2
			c-0.4-0.7-0.9-1.1-1.6-1.4c-0.7-0.3-1.7-0.4-2.9-0.4h-3.3v15.8h3.3c1.8,0,3.1-0.5,3.9-1.4C495.1,332.5,495.5,331.1,495.7,329.2z"
			/>
		<path d="M505.2,338.9v-24.5H521v4.3h-10.9v5.7h8.7v4.2h-8.7v5.9H521v4.3H505.2z"/>
		<path d="M525.1,338.9v-24.5h8.5l4.3,17.9l4.3-17.9h8.5v24.5h-5V320h-0.5l-4.8,17.9h-5l-4.8-17.9h-0.5v18.9H525.1z"/>
		<path d="M572.9,336.3c-1.5,2-4.1,3-7.9,3s-6.3-1-7.9-3c-1.5-2-2.3-5.2-2.3-9.5c0-4.3,0.8-7.5,2.3-9.6c1.5-2.1,4.1-3.1,7.9-3.1
			s6.3,1.1,7.9,3.1c1.5,2.1,2.3,5.3,2.3,9.6C575.2,331.1,574.5,334.3,572.9,336.3z M561.1,333.1c0.7,1.3,2,1.9,4,1.9
			c1.9,0,3.3-0.6,4-1.9c0.7-1.3,1.1-3.4,1.1-6.3c0-3-0.4-5.1-1.1-6.5c-0.7-1.3-2-2-4-2c-1.9,0-3.2,0.7-4,2c-0.7,1.3-1.1,3.5-1.1,6.5
			C560,329.8,560.4,331.9,561.1,333.1z"/>
		<path d="M587,318.3c-2.6,0-3.9,0.9-3.9,2.6c0,0.8,0.3,1.4,1,1.8s2.2,1,4.6,1.8c2.4,0.8,4.1,1.6,5,2.6c1,1,1.4,2.5,1.4,4.5
			c0,2.6-0.8,4.5-2.3,5.8c-1.6,1.3-3.6,2-6.1,2c-1.9,0-4.2-0.3-6.9-0.9l-1.3-0.3l0.5-3.9c3.2,0.4,5.7,0.6,7.4,0.6
			c2.5,0,3.8-1.1,3.8-3.2c0-0.8-0.3-1.4-0.9-1.8c-0.6-0.4-1.8-0.9-3.5-1.4c-2.8-0.8-4.7-1.7-5.9-2.8c-1.1-1.1-1.7-2.6-1.7-4.6
			c0-2.4,0.7-4.3,2.2-5.5c1.5-1.2,3.5-1.8,6.1-1.8c1.8,0,4,0.2,6.8,0.7l1.3,0.3l-0.4,3.9C590.8,318.5,588.4,318.3,587,318.3z"/>
	</g>
	<g>
		<path d="M113.2,463.2v23.8h-5v-18.1l-5.1,3.3l-2.3-3.7l7.8-5.2H113.2z"/>
		<path d="M120.3,486.9v-6h5.2v6H120.3z"/>
		<path d="M129.8,464c2.2-0.9,4.7-1.3,7.4-1.3c2.7,0,4.7,0.5,6,1.6c1.2,1,1.9,2.7,1.9,5s-0.9,4.1-2.8,5.3c1.2,0.6,2,1.3,2.5,1.9
			c0.5,0.7,0.7,1.7,0.7,3.2c0,2.6-0.6,4.5-1.9,5.7c-1.3,1.2-3.3,1.9-6.2,1.9c-2.1,0-4.3-0.3-6.6-0.9l-1.2-0.3l0.3-3.8
			c2.7,0.5,4.9,0.7,6.8,0.7c2.5,0,3.7-1.1,3.7-3.2c0-0.9-0.3-1.6-1-2.1c-0.6-0.5-1.5-0.8-2.5-0.8h-4.8v-4.1h4.8c0.8,0,1.5-0.3,2.1-1
			c0.6-0.7,0.9-1.4,0.9-2.2c0-1.7-1.2-2.6-3.6-2.6c-1.7,0-3.4,0.2-5.3,0.5l-0.9,0.1L129.8,464z"/>
		<path d="M149.7,486.9v-6h5.2v6H149.7z"/>
		<path d="M172,463.2v23.8h-5v-18.1l-5.1,3.3l-2.3-3.7l7.8-5.2H172z"/>
		<path d="M195.2,466.3c-2.6,0-3.9,0.9-3.9,2.6c0,0.8,0.3,1.4,1,1.8s2.2,1,4.6,1.8c2.4,0.8,4.1,1.6,5,2.6c1,1,1.4,2.5,1.4,4.5
			c0,2.6-0.8,4.5-2.3,5.8c-1.6,1.3-3.6,2-6.1,2c-1.9,0-4.2-0.3-6.9-0.9l-1.3-0.3l0.5-3.9c3.2,0.4,5.7,0.6,7.4,0.6
			c2.5,0,3.8-1.1,3.8-3.2c0-0.8-0.3-1.4-0.9-1.8c-0.6-0.4-1.8-0.9-3.5-1.4c-2.8-0.8-4.7-1.7-5.9-2.8c-1.1-1.1-1.7-2.6-1.7-4.6
			c0-2.4,0.7-4.3,2.2-5.5c1.5-1.2,3.5-1.8,6.1-1.8c1.8,0,4,0.2,6.8,0.7l1.3,0.3l-0.4,3.9C199,466.5,196.6,466.3,195.2,466.3z"/>
		<path d="M207.2,486.9v-24.5h8.5l4.3,17.9l4.3-17.9h8.5v24.5h-5V468h-0.5l-4.8,17.9h-5l-4.8-17.9h-0.5v18.9H207.2z"/>
		<path d="M236.1,486.9l5.5-24.5h9.4l5.5,24.5h-5l-1-4.4H242l-1,4.4H236.1z M245.4,466.5l-2.5,11.6h6.7l-2.5-11.6H245.4z"/>
		<path d="M264.8,478.7v8.2h-5v-24.5h9.5c5.8,0,8.6,2.7,8.6,8.1c0,3.2-1.2,5.5-3.6,7.1l3.5,9.4h-5.4l-2.8-8.2H264.8z M272,473.4
			c0.6-0.7,0.9-1.7,0.9-2.8c0-1.2-0.3-2.1-0.9-2.8c-0.6-0.7-1.5-1-2.6-1h-4.5v7.8h4.6C270.5,474.5,271.4,474.1,272,473.4z"/>
		<path d="M279.9,466.8v-4.4h18v4.4h-6.5v20.1h-5v-20.1H279.9z"/>
		<path d="M310,479.8h-4v7.1h-5v-24.5h9c5.8,0,8.7,2.8,8.7,8.5c0,2.9-0.7,5-2.2,6.6C315.1,479,312.9,479.8,310,479.8z M306,475.5h4
			c2.5,0,3.7-1.5,3.7-4.6c0-1.5-0.3-2.6-0.9-3.3c-0.6-0.7-1.5-1-2.8-1h-4V475.5z"/>
		<path d="M336.3,486.9v-10.2h-9.1v10.2h-5v-24.5h5v10h9.1v-10h5v24.5H336.3z"/>
		<path d="M363.6,484.3c-1.5,2-4.1,3-7.9,3s-6.3-1-7.9-3c-1.5-2-2.3-5.2-2.3-9.5c0-4.3,0.8-7.5,2.3-9.6c1.5-2.1,4.1-3.1,7.9-3.1
			s6.3,1.1,7.9,3.1c1.5,2.1,2.3,5.3,2.3,9.6C365.8,479.1,365.1,482.3,363.6,484.3z M351.7,481.1c0.7,1.3,2,1.9,4,1.9
			c1.9,0,3.3-0.6,4-1.9c0.7-1.3,1.1-3.4,1.1-6.3c0-3-0.4-5.1-1.1-6.5c-0.7-1.3-2-2-4-2c-1.9,0-3.2,0.7-4,2c-0.7,1.3-1.1,3.5-1.1,6.5
			C350.7,477.8,351,479.9,351.7,481.1z"/>
		<path d="M370.1,486.9v-24.5h8.4l5.9,20.2h0.4v-20.2h5v24.5h-8.2l-6.1-20.2h-0.4v20.2H370.1z"/>
		<path d="M395,486.9v-24.5h15.8v4.3H400v5.7h8.7v4.2H400v5.9h10.9v4.3H395z"/>
	</g>
	<g>
		<path d="M621.2,463.2v23.8h-5v-18.1l-5.1,3.3l-2.3-3.7l7.8-5.2H621.2z"/>
		<path d="M628.3,486.9v-6h5.2v6H628.3z"/>
		<path d="M637.7,464c2.2-0.9,4.7-1.3,7.4-1.3c2.7,0,4.7,0.5,6,1.6c1.2,1,1.9,2.7,1.9,5s-0.9,4.1-2.8,5.3c1.2,0.6,2,1.3,2.5,1.9
			c0.5,0.7,0.7,1.7,0.7,3.2c0,2.6-0.6,4.5-1.9,5.7c-1.3,1.2-3.3,1.9-6.2,1.9c-2.1,0-4.3-0.3-6.6-0.9l-1.2-0.3l0.3-3.8
			c2.7,0.5,4.9,0.7,6.8,0.7c2.5,0,3.7-1.1,3.7-3.2c0-0.9-0.3-1.6-1-2.1c-0.6-0.5-1.5-0.8-2.5-0.8H640v-4.1h4.8c0.8,0,1.5-0.3,2.1-1
			c0.6-0.7,0.9-1.4,0.9-2.2c0-1.7-1.2-2.6-3.6-2.6c-1.7,0-3.4,0.2-5.3,0.5l-0.9,0.1L637.7,464z"/>
		<path d="M657.7,486.9v-6h5.2v6H657.7z"/>
		<path d="M682.6,486.9h-15.4v-4.2l5.1-5.1c1.8-1.8,3.1-3.3,3.8-4.2c0.7-1,1.1-2,1.1-3.1c0-1.1-0.3-1.9-0.9-2.4
			c-0.6-0.5-1.4-0.7-2.5-0.7c-1.6,0-3.4,0.1-5.3,0.4l-0.9,0.1l-0.3-3.9c2.4-0.7,4.8-1.1,7.3-1.1c5,0,7.6,2.3,7.6,6.8
			c0,1.8-0.4,3.3-1.2,4.6c-0.8,1.3-2.2,2.9-4.2,4.7l-4.1,3.7h9.9V486.9z"/>
		<path d="M703.1,466.3c-2.6,0-3.9,0.9-3.9,2.6c0,0.8,0.3,1.4,1,1.8s2.2,1,4.6,1.8c2.4,0.8,4.1,1.6,5,2.6c1,1,1.4,2.5,1.4,4.5
			c0,2.6-0.8,4.5-2.3,5.8c-1.6,1.3-3.6,2-6.1,2c-1.9,0-4.2-0.3-6.9-0.9l-1.3-0.3l0.5-3.9c3.2,0.4,5.7,0.6,7.4,0.6
			c2.5,0,3.8-1.1,3.8-3.2c0-0.8-0.3-1.4-0.9-1.8c-0.6-0.4-1.8-0.9-3.5-1.4c-2.8-0.8-4.7-1.7-5.9-2.8c-1.1-1.1-1.7-2.6-1.7-4.6
			c0-2.4,0.7-4.3,2.2-5.5c1.5-1.2,3.5-1.8,6.1-1.8c1.8,0,4,0.2,6.8,0.7l1.3,0.3l-0.4,3.9C706.9,466.5,704.5,466.3,703.1,466.3z"/>
		<path d="M715.2,486.9v-24.5h8.5l4.3,17.9l4.3-17.9h8.5v24.5h-5V468h-0.5l-4.8,17.9h-5l-4.8-17.9h-0.5v18.9H715.2z"/>
		<path d="M744,486.9l5.5-24.5h9.4l5.5,24.5h-5l-1-4.4H750l-1,4.4H744z M753.4,466.5l-2.5,11.6h6.7l-2.5-11.6H753.4z"/>
		<path d="M772.7,478.7v8.2h-5v-24.5h9.5c5.8,0,8.6,2.7,8.6,8.1c0,3.2-1.2,5.5-3.6,7.1l3.5,9.4h-5.4l-2.8-8.2H772.7z M780,473.4
			c0.6-0.7,0.9-1.7,0.9-2.8c0-1.2-0.3-2.1-0.9-2.8c-0.6-0.7-1.5-1-2.6-1h-4.5v7.8h4.6C778.5,474.5,779.4,474.1,780,473.4z"/>
		<path d="M787.9,466.8v-4.4h18v4.4h-6.5v20.1h-5v-20.1H787.9z"/>
		<path d="M807,462.4h5.2l3,20.2h0.5l4.4-20.2h5.8l4.4,20.2h0.5l3-20.2h5.2l-4.7,24.5h-7.5l-3.9-18.6l-3.9,18.6h-7.5L807,462.4z"/>
		<path d="M839.8,486.9l5.5-24.5h9.4l5.5,24.5h-5l-1-4.4h-8.6l-1,4.4H839.8z M849.1,466.5l-2.5,11.6h6.7l-2.5-11.6H849.1z"/>
		<path d="M860,466.8v-4.4h18v4.4h-6.5v20.1h-5v-20.1H860z"/>
		<path d="M896.6,486.5c-2.5,0.6-4.8,0.8-6.9,0.8c-2,0-3.7-0.3-4.9-0.8c-1.2-0.5-2.2-1.3-2.9-2.4c-0.7-1.1-1.2-2.4-1.4-3.9
			c-0.3-1.5-0.4-3.4-0.4-5.6c0-4.7,0.7-8,2-9.9c1.3-1.9,3.8-2.8,7.4-2.8c2.1,0,4.5,0.3,7.2,1l-0.1,4c-2.4-0.4-4.4-0.5-5.9-0.5
			c-1.6,0-2.7,0.2-3.4,0.6c-0.7,0.4-1.2,1.2-1.5,2.4c-0.3,1.2-0.5,3.2-0.5,6c0,2.8,0.3,4.8,1,5.9c0.7,1.1,2,1.6,4,1.6
			s4.1-0.2,6.3-0.5L896.6,486.5z"/>
		<path d="M914.7,486.9v-10.2h-9.1v10.2h-5v-24.5h5v10h9.1v-10h5v24.5H914.7z"/>
	</g>
	<polyline fill="none" stroke="#000000" stroke-width="2" stroke-miterlimit="10" points="255,448 255,395 764,395 764,447.7 	"/>
	<line fill="none" stroke="#000000" stroke-width="2" stroke-miterlimit="10" x1="509.5" y1="395" x2="509.5" y2="353"/>
	<polyline fill="none" stroke="#000000" stroke-width="2" stroke-miterlimit="10" points="319,220 319,167 704,167 704,219.7 	"/>
	<line fill="none" stroke="#000000" stroke-width="2" stroke-miterlimit="10" x1="509" y1="300" x2="509" y2="124"/>
	<line fill="none" stroke="#000000" stroke-width="2" stroke-miterlimit="10" x1="510" y1="78" x2="510" y2="36"/>
	<polyline fill="none" stroke="#000000" stroke-width="2" stroke-miterlimit="10" points="764,501 764,555 1017,555 1017,15 608,15 
			"/>
	<polyline fill="none" stroke="#000000" stroke-width="2" stroke-miterlimit="10" points="255,501 255,555 2,555 2,15 411,15 	"/>
</g>
</svg>
