<?xml version="1.0" encoding="utf-8"?>
<!-- Generator: Adobe Illustrator 22.1.0, SVG Export Plug-In . SVG Version: 6.00 Build 0)  -->
<svg version="1.1" id="Layer_1" xmlns="http://www.w3.org/2000/svg" xmlns:xlink="http://www.w3.org/1999/xlink" x="0px" y="0px"
	 viewBox="0 0 235 235" style="enable-background:new 0 0 235 235;" xml:space="preserve">
<style type="text/css">
	.st0{enable-background:new    ;}
	.st1{fill:#1A1A30;}
</style>
<g id="Logo" transform="translate(-5 -20)">
	<g class="st0">
		<path class="st1" d="M160.9,165.2l-9.3-44.6c-0.2-1.1-1-1.4-1.6-1.4c-0.7,0-1.6,0.5-2.7,1.5l0,0l-2,2.3l-20.5,44.7
			c-0.6,1.2-0.3,2,0,2.4c0.3,0.4,0.8,0.6,1.3,0.6c0.3,0,0.7-0.1,1.1-0.2c0.7-0.3,1.4-0.8,2.1-1.5c0.7-0.7,1.2-1.4,1.5-2.1l5-10.8
			h15.7l2.8,13.4c0.2,0.8,0.8,1.2,1.6,1.2c0.1,0,0.3,0,0.5-0.1c0.7-0.1,1.4-0.5,2.2-1.1c0.7-0.6,1.3-1.3,1.8-2
			C160.9,166.6,161.1,165.8,160.9,165.2z M138.9,149.3l7.6-16.8l3.5,16.8H138.9z"/>
		<path class="st1" d="M196.3,125.8c-1.9-2.9-4.6-5-7.9-6.4c-2.4-1-4.9-1.5-7.3-1.5c-2.4,0-4.8,0.4-7.2,1.3
			c-1.3,0.1-2.4,0.9-3.4,2.2c-0.8,1.1-1.2,1.9-1.3,2.6l-3.8,44.5c-0.1,0.8,0.2,1.3,0.5,1.6c0.2,0.2,0.5,0.4,1.1,0.4
			c0.3,0,0.7-0.1,1.1-0.3c0.7-0.3,1.3-0.7,1.8-1.1c1.5-1.3,2.2-2.5,2.2-3.7l1-12.3c0.7,0,1.3,0.1,2,0.1c1.7,0,3.4-0.2,5.2-0.5
			c4.2-0.9,8-2.7,11.2-5.4c2-1.7,3.7-3.6,4.9-5.7c1.2-2.1,2-4.2,2.2-6.2C199,132.1,198.2,128.8,196.3,125.8z M189.2,143.6
			c-1.5,1.3-3.8,2.2-6.8,2.8c-1.3,0.2-2.6,0.4-3.9,0.4h0c-1.6,0-3.2-0.2-4.9-0.5l1.8-21.3c0.8-0.1,1.8-0.1,2.9-0.1
			c1.5,0,3.4,0.5,5.8,1.4c2.3,0.9,4.3,2.5,5.9,4.9c1.5,2.3,2.1,4.6,1.8,7C191.5,140.5,190.6,142.3,189.2,143.6z"/>
		<path class="st1" d="M231.6,125.8c-1.9-2.9-4.6-5-7.9-6.4c-2.4-1-4.8-1.5-7.3-1.5c-2.4,0-4.8,0.4-7.2,1.3
			c-1.3,0.1-2.4,0.9-3.4,2.2c-0.8,1.1-1.2,1.9-1.3,2.6l-3.8,44.5c-0.1,0.6,0.1,1.2,0.5,1.6c0.2,0.2,0.5,0.4,1.1,0.4
			c0.3,0,0.7-0.1,1.1-0.3c0.7-0.3,1.3-0.7,1.8-1.1c1.5-1.3,2.2-2.5,2.2-3.7l1-12.3c0.7,0,1.3,0.1,2,0.1c1.7,0,3.4-0.2,5.2-0.5
			c4.2-0.9,8-2.7,11.2-5.4c2-1.7,3.7-3.6,4.9-5.7c1.2-2.1,2-4.2,2.2-6.2C234.3,132.1,233.5,128.8,231.6,125.8z M224.5,143.6
			c-1.5,1.3-3.8,2.2-6.8,2.8c-1.3,0.2-2.6,0.4-3.9,0.4h0c-1.6,0-3.2-0.2-4.9-0.5l1.8-21.3c0.8-0.1,1.8-0.1,2.9-0.1
			c1.5,0,3.4,0.5,5.8,1.4c2.3,0.9,4.3,2.5,5.9,4.9c1.5,2.3,2.1,4.6,1.8,7C226.8,140.5,225.9,142.3,224.5,143.6z"/>
	</g>
	<g class="st0">
		<path class="st1" d="M44.8,137c-0.4-2.2-1.3-4.1-2.6-5.7c-0.9-1-1.7-1.8-2.4-2.4c3.3-3.3,5-6.8,5-10.4c-0.1-3.7-1.9-6.8-5.5-9.5
			c-1.8-1.4-4.5-2.4-7.9-3.1c-3.3-0.7-7-1.2-10.9-1.6c-0.1,0-0.2,0-0.3,0c-0.6,0-1.2,0.1-1.8,0.4c-1.5,0.8-2.5,2.2-3.1,4.3l0,0.1
			l-3.9,44.7c-0.1,1,0.5,1.7,1.5,1.8c2.6,0.2,5.1,0.4,7.4,0.4c2.3,0,4.5-0.1,6.5-0.4c5.8-0.8,10.5-3.1,13.9-6.8
			c1.5-1.6,2.7-3.5,3.5-5.5C45,141.4,45.2,139.2,44.8,137z M26.4,112.4c3.5,0.7,6.2,1.7,8,3c2.4,1.8,3.6,4,3.7,6.9
			c0,1.3-0.4,2.4-1.3,3.4c-0.9,0.9-1.8,1.4-2.8,1.5c-1.2-0.1-2.6-0.2-4.1-0.2l-9.7-0.4l1.3-14.8C23.3,111.9,24.9,112.1,26.4,112.4z
			 M35.7,136.3c1.3,1.6,2.2,3.1,2.4,4.6c0.3,1.5,0.2,2.7-0.1,3.6c-0.5,1.3-0.8,1.7-0.9,1.7c-0.2,0.2-0.6,0.5-1.3,1
			c-2.7,1.5-6.8,2.2-12,2.2c0,0,0,0,0,0c-1.7,0-3.6-0.1-5.5-0.2l1.3-15.5c3.9,0.1,6.7,0.2,8.5,0.2c1.9,0,3.6,0,4.8,0.1
			C33.1,134,33.9,134.2,35.7,136.3z"/>
		<path class="st1" d="M83.3,108.9c-2.5-2.9-6.2-4.4-10.8-4.5c-0.2,0-0.5,0-0.7,0c-6.5,0-11.9,2.9-16.1,8.7
			c-1.9,2.5-3.3,5.3-4.3,8.4c-0.9,3-1.6,6.6-2,10.6c-0.9,8.8,0.4,15.2,3.9,19.1c2.6,2.9,6.3,4.5,11.2,4.6c0.2,0,0.5,0,0.7,0
			c6.7,0,12.2-2.9,16.4-8.6c3.1-4.2,5-10,5.7-17.2C88.3,120.1,87,113,83.3,108.9z M76.8,145.8c-1.6,2.1-4.2,3.1-8,3.1
			c-0.3,0-0.5,0-0.8,0c-3.9-0.1-6.8-1.3-8.8-3.6c-2.8-3.2-3.9-8.8-3.1-16.4c0.3-3.4,0.9-6.4,1.7-9c0.8-2.5,1.7-4.5,2.6-5.7
			c1.6-2.2,4.2-3.2,7.9-3.2c0.2,0,0.4,0,0.6,0c3.7,0.1,6.4,1.3,8.4,3.5c3,3.5,4.2,9.7,3.3,18.4c-0.3,2.9-0.8,5.6-1.5,7.8
			C78.4,143,77.7,144.7,76.8,145.8z"/>
		<path class="st1" d="M128.2,105c-0.2-0.3-0.6-0.6-1.4-0.6H99.7c-0.7,0-1.4,0.3-2.2,0.9c-0.8,0.5-1.4,1.1-1.8,1.7
			c-0.4,0.6-0.7,1.2-0.9,1.6c-0.1,0.3-0.4,1.2,0.1,1.9c0.2,0.2,0.6,0.6,1.3,0.6h23.6l-30.1,40.6c-0.2,0.3-0.4,0.7-0.6,1
			c-0.3,0.6-0.6,1.5-0.2,2.3c0.2,0.3,0.6,0.7,1.4,0.7h29.8c0.7,0,1.5-0.4,2.7-1.2c1.1-0.8,1.9-1.8,2.2-3c0.1-0.3,0.4-1.2-0.1-1.9
			c-0.2-0.2-0.6-0.6-1.4-0.6H97.5l30.1-40.6c0.4-0.5,0.7-1,0.8-1.5C128.6,106,128.6,105.4,128.2,105z"/>
	</g>
	<polygon class="st1" points="90.8,255 85.4,254.9 192,20 197.4,20 	"/>
</g>
<g id="Guides">
</g>
</svg>
