<svg id="Layer_1" data-name="Layer 1" xmlns="http://www.w3.org/2000/svg" viewBox="0 0 85 85"><defs><style>.cls-1{fill:#dba9a9;}.cls-2{fill:none;}.cls-3{fill:#fff;}</style></defs><title>_</title><path id="Path_349" data-name="Path 349" class="cls-1" d="M0,0H85V85H0Z"/><g id="ic_favorite_black_24px" data-name="ic favorite black 24px"><path id="Path_283" data-name="Path 283" class="cls-2" d="M10.33,9.33H75.67V74.67H10.33Z"/><g id="Group_648" data-name="Group 648"><path id="Path_283-2" data-name="Path 283-2" class="cls-2" d="M8,7H78V77H8Z"/><g id="Path_504" data-name="Path 504"><path class="cls-2" d="M57.67,14.5,43.11,27.21,28.5,14.5l-13.67,11V42L43.11,69.93,71.33,42V25.35Z"/><path class="cls-3" d="M43.11,69.92,71.33,42V25.35L57.67,14.5,43.11,27.21,28.49,14.5l-13.66,11V42L43.11,69.92m0,6.56-3.28-3.24L11.56,45.33,10.17,44V23.22l1.74-1.4,13.66-11,3.05-2.44L31.56,11,43.11,21,54.6,11l2.93-2.55,3,2.41L74.24,21.69,76,23.09V44l-1.38,1.37L46.4,73.24Z"/></g><g id="ic_share_black_24px" data-name="ic share black 24px"><path id="Path_286" data-name="Path 286" class="cls-2" d="M28.42,56.58V27.42H57.58V56.58Z"/><path id="Path_287" data-name="Path 287" class="cls-3" d="M48,34.71a3.51,3.51,0,0,0,.93,2.38l-5,8.67a3.34,3.34,0,0,0-1.7,0l-5-8.57a3.63,3.63,0,1,0-2.66,1.17,5,5,0,0,0,.85-.11l5,8.56a3.65,3.65,0,1,0,5.32,0l5.06-8.65a3.49,3.49,0,0,0,.79.1A3.55,3.55,0,1,0,48,34.71Z"/></g></g></g></svg>