<svg id="Layer_1" data-name="Layer 1" xmlns="http://www.w3.org/2000/svg" viewBox="0 0 100 75"><defs><style>.cls-1{fill:#9f4b4b;}.cls-2{opacity:0.5;}.cls-3{fill:none;}.cls-4{fill:#fff;}</style></defs><title>_</title><g id="Group_705" data-name="Group 705"><path id="Path_349" data-name="Path 349" class="cls-1" d="M0,0H100.29V75H0Z"/><g id="ic_favorite_black_24px" data-name="ic favorite black 24px" class="cls-2"><path id="Path_283" data-name="Path 283" class="cls-3" d="M13,22.75H41v28H13Z"/><g id="Group_648" data-name="Group 648"><path id="Path_283-2" data-name="Path 283-2" class="cls-3" d="M12,21.75H42v30H12Z"/><g id="Path_504" data-name="Path 504"><path class="cls-3" d="M33.29,25l-6.24,5.45L20.78,25l-5.85,4.7v7.1l12.12,12,12.09-12V29.61Z"/><path class="cls-4" d="M27.05,48.72l12.09-12V29.61L33.29,25l-6.24,5.45L20.78,25l-5.85,4.7v7.09l12.12,12m0,2.81-1.41-1.39-12.12-12-.59-.59V28.7l.75-.6,5.85-4.7,1.31-1,1.26,1.09,4.95,4.31L32,23.46l1.26-1.1,1.3,1,5.86,4.65.75.6v8.94l-.59.59-12.09,12Z"/></g><g id="ic_share_black_24px" data-name="ic share black 24px"><path id="Path_286" data-name="Path 286" class="cls-3" d="M20.75,43V30.5h12.5V43Z"/><path id="Path_287" data-name="Path 287" class="cls-4" d="M29.13,33.62a1.51,1.51,0,0,0,.4,1l-2.16,3.71a2.35,2.35,0,0,0-.37,0,2.08,2.08,0,0,0-.36,0l-2.15-3.67a1.62,1.62,0,1,0-.77.45l2.14,3.67a1.56,1.56,0,1,0,2.28,0l2.17-3.71a1.27,1.27,0,0,0,.34,0,1.53,1.53,0,1,0-1.52-1.53Z"/></g></g></g><path id="path" class="cls-4" d="M86,29.75l-2-2-8,8-8-8-2,2,8,8-8,8,2,2,8-8,8,8,2-2-8-8Z"/></g></svg>