<svg id="Layer_1" data-name="Layer 1" xmlns="http://www.w3.org/2000/svg" viewBox="0 0 85 85"><defs><style>.cls-1{fill:#9f4b4b;}.cls-2,.cls-3{fill:#fff;}.cls-3{opacity:0.5;isolation:isolate;}</style></defs><title>_</title><rect class="cls-1" width="85" height="85"/><g id="Symbol_58_2" data-name="Symbol 58 2"><g id="Group_595" data-name="Group 595"><rect id="Rectangle_1929" data-name="Rectangle 1929" class="cls-2" x="40.83" y="50.79" width="3.14" height="3.14"/><path id="Path_507" data-name="Path 507" class="cls-2" d="M47.19,41.81l-1.41,1.43a5.33,5.33,0,0,0-1.84,4.42H40.83v-.77a6.25,6.25,0,0,1,1.83-4.42l1.94-2a3,3,0,0,0,.93-2.21,3.14,3.14,0,1,0-6.27,0H36.13a6.25,6.25,0,0,1,12.5,0A4.91,4.91,0,0,1,47.19,41.81Z"/><g id="Group_568" data-name="Group 568"><path id="Path_506" data-name="Path 506" class="cls-2" d="M42.4,23.83,61.08,42.51,42.4,61.2,23.71,42.51,42.4,23.83m0-3.45L20.27,42.51,42.4,64.64,64.53,42.51Z"/><path id="Path_546" data-name="Path 546" class="cls-3" d="M42.5,15.06,69.94,42.5,42.5,69.94,15.06,42.5,42.5,15.06m0-5.06L10,42.5,42.5,75,75,42.5Z"/></g></g></g></svg>