<?xml version="1.0" encoding="utf-8"?>
<!-- Generator: Adobe Illustrator 22.1.0, SVG Export Plug-In . SVG Version: 6.00 Build 0)  -->
<svg version="1.1" id="Layer_1" xmlns="http://www.w3.org/2000/svg" xmlns:xlink="http://www.w3.org/1999/xlink" x="0px" y="0px"
	 viewBox="0 0 726 65" style="enable-background:new 0 0 726 65;" xml:space="preserve">
<style type="text/css">
	.st0{enable-background:new    ;}
	.st1{fill:#141414;}
	.st2{fill:none;}
	.st3{opacity:0.54;fill:#1A1A30;enable-background:new    ;}
	.st4{fill:#A8A8A8;}
	.st5{fill:#9F4B4B;}
</style>
<title>_</title>
<g>
	<g>
		<g id="Group_707">
			<g id="Korting">
				<g class="st0">
					<path class="st1" d="M11,31.3l-3.5,4v7.9H3.4V17.8h4.1v12.9h0.1l3.6-4.6l6.8-8.3H23l-9.1,10.7l9.8,14.7h-5L11,31.3z"/>
				</g>
				<g class="st0">
					<path class="st1" d="M33.7,43.6c-1.3,0-2.5-0.2-3.6-0.7c-1.1-0.5-2-1.1-2.7-2c-0.8-0.9-1.3-1.9-1.7-3.1
						c-0.4-1.2-0.6-2.6-0.6-4.1c0-1.5,0.2-2.9,0.6-4.1c0.4-1.2,1-2.3,1.7-3.1c0.8-0.9,1.7-1.5,2.7-2c1.1-0.5,2.3-0.7,3.6-0.7
						c1.3,0,2.5,0.2,3.6,0.7c1.1,0.5,2,1.1,2.7,2c0.8,0.9,1.3,1.9,1.7,3.1c0.4,1.2,0.6,2.6,0.6,4.1c0,1.5-0.2,2.9-0.6,4.1
						c-0.4,1.2-1,2.3-1.7,3.1c-0.8,0.9-1.7,1.5-2.7,2C36.2,43.4,35,43.6,33.7,43.6z M33.7,40.3c1.4,0,2.5-0.4,3.3-1.2
						c0.8-0.8,1.2-2.1,1.2-3.7v-3.2c0-1.7-0.4-2.9-1.2-3.7c-0.8-0.8-1.9-1.2-3.3-1.2c-1.4,0-2.5,0.4-3.3,1.2
						c-0.8,0.8-1.2,2.1-1.2,3.7v3.2c0,1.7,0.4,2.9,1.2,3.7C31.2,39.9,32.3,40.3,33.7,40.3z"/>
				</g>
				<g class="st0">
					<path class="st1" d="M46.8,43.2V24.3h4v3.6h0.2c0.3-1,0.8-1.8,1.7-2.5c0.8-0.7,2-1.1,3.5-1.1h1.1v3.8h-1.6
						c-1.6,0-2.8,0.3-3.6,0.8c-0.8,0.5-1.3,1.3-1.3,2.3v12.1H46.8z"/>
				</g>
				<g class="st0">
					<path class="st1" d="M66.1,43.2c-1.4,0-2.4-0.4-3.1-1.1c-0.7-0.7-1.1-1.7-1.1-3V27.5H59v-3.2h1.6c0.7,0,1.1-0.1,1.4-0.4
						c0.3-0.3,0.4-0.8,0.4-1.4v-3.3h3.6v5.2h4v3.2h-4V40h3.7v3.2H66.1z"/>
					<path class="st1" d="M76.1,20.9c-0.8,0-1.4-0.2-1.8-0.6c-0.4-0.4-0.6-0.9-0.6-1.5v-0.6c0-0.6,0.2-1.1,0.6-1.5
						c0.4-0.4,1-0.6,1.8-0.6c0.8,0,1.4,0.2,1.8,0.6c0.4,0.4,0.5,0.9,0.5,1.5v0.6c0,0.6-0.2,1.1-0.5,1.5C77.6,20.7,77,20.9,76.1,20.9
						z M74.1,24.3h4v18.9h-4V24.3z"/>
					<path class="st1" d="M83.8,43.2V24.3h4v3.1h0.2c0.4-1,1-1.9,1.9-2.5c0.8-0.7,2-1,3.4-1c1.9,0,3.5,0.6,4.5,1.9
						c1.1,1.3,1.6,3.1,1.6,5.4v12h-4V31.7c0-3-1.2-4.4-3.6-4.4c-0.5,0-1,0.1-1.5,0.2c-0.5,0.1-0.9,0.3-1.3,0.6
						c-0.4,0.3-0.7,0.6-0.9,1c-0.2,0.4-0.3,0.9-0.3,1.5v12.7H83.8z"/>
					<path class="st1" d="M121.5,45c0,2-0.8,3.4-2.3,4.4c-1.5,1-4,1.5-7.4,1.5c-1.6,0-2.9-0.1-3.9-0.3c-1.1-0.2-2-0.5-2.7-0.9
						c-0.7-0.4-1.2-0.9-1.5-1.4c-0.3-0.6-0.5-1.2-0.5-1.9c0-1,0.3-1.9,0.9-2.4c0.6-0.6,1.4-1,2.4-1.2v-0.4c-1.4-0.5-2.1-1.4-2.1-2.9
						c0-1,0.3-1.7,1-2.2c0.7-0.5,1.4-0.9,2.4-1.1v-0.1c-1.1-0.5-2-1.3-2.6-2.2c-0.6-1-0.9-2.1-0.9-3.4c0-1.9,0.6-3.5,1.9-4.7
						c1.3-1.2,3.2-1.8,5.6-1.8c1.3,0,2.5,0.2,3.4,0.6v-0.5c0-0.8,0.2-1.5,0.6-2c0.4-0.5,1-0.7,1.9-0.7h2.9v3.2h-3.9v0.8
						c0.8,0.6,1.5,1.3,2,2.2c0.5,0.9,0.7,1.9,0.7,3c0,1.9-0.7,3.5-2,4.6c-1.3,1.2-3.2,1.8-5.6,1.8c-0.9,0-1.7-0.1-2.5-0.3
						c-0.5,0.2-0.9,0.4-1.3,0.7c-0.4,0.3-0.5,0.7-0.5,1.2c0,0.5,0.2,0.9,0.7,1.1c0.5,0.2,1.1,0.3,2,0.3h4.7c2.3,0,4,0.5,5.1,1.4
						C121,42.1,121.5,43.4,121.5,45z M117.8,45.4c0-0.7-0.2-1.2-0.7-1.6c-0.5-0.4-1.4-0.6-2.7-0.6h-6.4c-0.9,0.5-1.3,1.2-1.3,2.2
						c0,0.8,0.3,1.4,0.9,1.9c0.6,0.5,1.7,0.7,3.1,0.7h2.5C116.2,48,117.8,47.2,117.8,45.4z M111.8,33.8c1.2,0,2.1-0.3,2.7-0.8
						c0.6-0.5,1-1.3,1-2.4v-0.7c0-1.1-0.3-1.9-1-2.4c-0.6-0.5-1.5-0.8-2.7-0.8c-1.2,0-2.1,0.3-2.7,0.8c-0.6,0.5-1,1.3-1,2.4v0.7
						c0,1.1,0.3,1.9,1,2.4C109.8,33.6,110.7,33.8,111.8,33.8z"/>
				</g>
			</g>
			<g id="Group_227">
				<rect id="rectangle" x="662" y="-0.3" class="st2" width="65" height="65"/>
				<path id="path" class="st3" d="M686.4,43.6L675,32.2l-3.8,3.8l15.2,15.2l32.5-32.5l-3.8-3.8L686.4,43.6z"/>
			</g>
			<g id="code_ingeven">
				<g class="st0">
					<path class="st4" d="M190.8,41c-2.2,0-3.9-0.7-5.1-2.2c-1.2-1.5-1.8-3.5-1.8-6.2c0-2.7,0.6-4.7,1.8-6.2
						c1.2-1.5,2.9-2.2,5.1-2.2c1.5,0,2.7,0.3,3.6,1c0.9,0.6,1.6,1.5,2.1,2.6l-1.5,0.7c-0.4-0.9-0.9-1.5-1.6-2
						c-0.7-0.5-1.5-0.7-2.6-0.7c-1.6,0-2.9,0.5-3.7,1.6c-0.9,1-1.3,2.4-1.3,4.1v2.2c0,1.7,0.4,3,1.3,4.1c0.9,1,2.1,1.6,3.7,1.6
						c1.1,0,2-0.2,2.8-0.7c0.7-0.5,1.4-1.2,1.8-2.1l1.3,0.9c-0.5,1.1-1.3,1.9-2.2,2.5C193.5,40.7,192.3,41,190.8,41z"/>
					<path class="st4" d="M206.1,41c-1.1,0-2-0.2-2.9-0.6c-0.9-0.4-1.6-0.9-2.2-1.6c-0.6-0.7-1.1-1.6-1.4-2.6
						c-0.3-1-0.5-2.2-0.5-3.5c0-1.3,0.2-2.5,0.5-3.5c0.3-1,0.8-1.9,1.4-2.6c0.6-0.7,1.3-1.3,2.2-1.7c0.9-0.4,1.8-0.6,2.9-0.6
						c1.1,0,2,0.2,2.9,0.6s1.6,0.9,2.2,1.7c0.6,0.7,1.1,1.6,1.4,2.6c0.3,1,0.5,2.2,0.5,3.5c0,1.3-0.2,2.5-0.5,3.5
						c-0.3,1-0.8,1.9-1.4,2.6c-0.6,0.7-1.3,1.3-2.2,1.6C208.1,40.8,207.1,41,206.1,41z M206.1,39.4c1.6,0,2.8-0.5,3.7-1.5
						c0.9-1,1.4-2.4,1.4-4.3v-2c0-1.9-0.5-3.3-1.4-4.3s-2.1-1.5-3.7-1.5s-2.8,0.5-3.7,1.5s-1.4,2.4-1.4,4.3v2c0,1.9,0.5,3.3,1.4,4.3
						C203.3,38.9,204.5,39.4,206.1,39.4z"/>
					<path class="st4" d="M227.9,38L227.9,38c-0.5,0.9-1.1,1.6-1.9,2.1c-0.8,0.5-1.8,0.8-3,0.8c-2.1,0-3.7-0.7-4.8-2.2
						c-1.2-1.5-1.7-3.5-1.7-6.2c0-2.7,0.6-4.7,1.7-6.2c1.2-1.5,2.8-2.2,4.8-2.2c1.2,0,2.2,0.3,3.1,0.8c0.8,0.5,1.4,1.2,1.8,2.1h0.1
						v-9.7h1.8v23.1h-1.8V38z M223.3,39.4c0.6,0,1.2-0.1,1.8-0.3c0.6-0.2,1-0.4,1.5-0.7c0.4-0.3,0.7-0.7,1-1.2
						c0.2-0.4,0.4-1,0.4-1.5v-6.3c0-0.5-0.1-1-0.4-1.4c-0.2-0.4-0.6-0.8-1-1.1c-0.4-0.3-0.9-0.6-1.5-0.7c-0.6-0.2-1.1-0.3-1.8-0.3
						c-1.6,0-2.9,0.5-3.7,1.5c-0.9,1-1.3,2.4-1.3,4.1v2.2c0,1.7,0.4,3.1,1.3,4.1C220.5,38.9,221.7,39.4,223.3,39.4z"/>
					<path class="st4" d="M241.2,41c-1.1,0-2-0.2-2.9-0.6c-0.9-0.4-1.6-0.9-2.2-1.6c-0.6-0.7-1.1-1.6-1.4-2.6
						c-0.3-1-0.5-2.2-0.5-3.5c0-1.3,0.2-2.5,0.5-3.5c0.3-1,0.8-1.9,1.4-2.6c0.6-0.7,1.3-1.3,2.2-1.7c0.9-0.4,1.8-0.6,2.9-0.6
						c1,0,1.9,0.2,2.8,0.6c0.8,0.4,1.5,0.9,2.1,1.6c0.6,0.7,1,1.5,1.4,2.5c0.3,1,0.5,2,0.5,3.2V33h-11.8v0.8c0,0.8,0.1,1.6,0.4,2.3
						c0.2,0.7,0.6,1.3,1,1.8c0.4,0.5,1,0.9,1.6,1.2c0.6,0.3,1.4,0.4,2.2,0.4c2.3,0,3.9-1.1,4.8-3.2l1.3,0.9
						c-0.5,1.2-1.3,2.1-2.4,2.8C244,40.6,242.7,41,241.2,41z M241.2,25.8c-0.8,0-1.5,0.1-2.1,0.4c-0.6,0.3-1.2,0.7-1.6,1.2
						c-0.4,0.5-0.8,1.1-1,1.8s-0.4,1.5-0.4,2.3v0.2h9.9v-0.3c0-0.8-0.1-1.6-0.3-2.3c-0.2-0.7-0.6-1.3-1-1.8s-0.9-0.9-1.5-1.1
						S241.9,25.8,241.2,25.8z"/>
					<path class="st4" d="M260.7,20.3c-0.4,0-0.7-0.1-0.9-0.3c-0.2-0.2-0.3-0.5-0.3-0.8v-0.3c0-0.3,0.1-0.6,0.3-0.8
						c0.2-0.2,0.5-0.3,0.9-0.3c0.4,0,0.7,0.1,0.9,0.3c0.2,0.2,0.3,0.5,0.3,0.8v0.3c0,0.3-0.1,0.6-0.3,0.8
						C261.4,20.2,261.1,20.3,260.7,20.3z M259.8,24.6h1.8v16h-1.8V24.6z"/>
					<path class="st4" d="M267.4,40.6v-16h1.8v2.5h0.1c0.4-0.8,0.9-1.5,1.7-2.1c0.7-0.6,1.8-0.8,3.1-0.8c1.7,0,3,0.5,4,1.6
						c0.9,1.1,1.4,2.6,1.4,4.5v10.3h-1.8v-10c0-1.6-0.3-2.8-1-3.6c-0.7-0.8-1.7-1.2-3-1.2c-0.6,0-1.1,0.1-1.6,0.2
						c-0.5,0.1-1,0.4-1.4,0.7c-0.4,0.3-0.7,0.7-1,1.1s-0.4,1-0.4,1.5v11.2H267.4z"/>
					<path class="st4" d="M298,42.5c0,1.6-0.6,2.8-1.9,3.6c-1.3,0.8-3.2,1.2-5.7,1.2c-2.4,0-4.2-0.4-5.3-1.1
						c-1.1-0.7-1.6-1.7-1.6-2.9c0-0.9,0.2-1.6,0.7-2.2c0.5-0.5,1.2-0.9,2-1.2v-0.2c-1-0.4-1.5-1.1-1.5-2.2c0-0.8,0.3-1.4,0.8-1.8
						c0.5-0.4,1.2-0.7,1.9-0.9v-0.1c-0.9-0.4-1.7-1-2.2-1.9c-0.5-0.8-0.8-1.8-0.8-3c0-0.8,0.1-1.5,0.4-2.2c0.3-0.7,0.7-1.2,1.2-1.7
						c0.5-0.5,1.1-0.8,1.8-1.1c0.7-0.3,1.5-0.4,2.4-0.4c1.2,0,2.3,0.3,3.2,0.8v-0.8c0-0.5,0.1-0.9,0.3-1.1s0.6-0.4,1.1-0.4h2.7v1.5
						h-3.2v1.5c0.5,0.5,1,1.1,1.2,1.7c0.3,0.7,0.4,1.4,0.4,2.2s-0.1,1.5-0.4,2.2c-0.3,0.7-0.7,1.2-1.2,1.7c-0.5,0.5-1.1,0.9-1.8,1.1
						s-1.5,0.4-2.4,0.4c-0.3,0-0.6,0-0.8-0.1c-0.3,0-0.5-0.1-0.8-0.1c-0.7,0.2-1.3,0.4-1.7,0.8c-0.4,0.3-0.7,0.8-0.7,1.3
						c0,1,0.9,1.4,2.6,1.4h3.7c1.9,0,3.3,0.4,4.2,1.1C297.6,40.2,298,41.2,298,42.5z M296.3,42.6c0-0.8-0.3-1.4-0.8-1.8
						c-0.6-0.4-1.5-0.7-2.9-0.7h-5.2c-0.7,0.2-1.2,0.6-1.6,1c-0.4,0.5-0.6,1-0.6,1.7c0,0.8,0.3,1.5,1,2.1c0.7,0.6,1.7,0.8,3.1,0.8h2
						c1.6,0,2.8-0.3,3.7-0.8C295.9,44.5,296.3,43.7,296.3,42.6z M290.3,33.7c1.2,0,2.2-0.3,2.9-0.9s1-1.5,1-2.6v-1
						c0-1.1-0.3-2-1-2.6s-1.7-0.9-2.9-0.9c-1.2,0-2.2,0.3-2.9,0.9c-0.7,0.6-1,1.5-1,2.6v1c0,1.1,0.3,2,1,2.6S289.1,33.7,290.3,33.7z
						"/>
					<path class="st4" d="M307,41c-1.1,0-2-0.2-2.9-0.6c-0.9-0.4-1.6-0.9-2.2-1.6c-0.6-0.7-1.1-1.6-1.4-2.6c-0.3-1-0.5-2.2-0.5-3.5
						c0-1.3,0.2-2.5,0.5-3.5c0.3-1,0.8-1.9,1.4-2.6c0.6-0.7,1.3-1.3,2.2-1.7c0.9-0.4,1.8-0.6,2.9-0.6c1,0,1.9,0.2,2.8,0.6
						c0.8,0.4,1.5,0.9,2.1,1.6c0.6,0.7,1,1.5,1.4,2.5c0.3,1,0.5,2,0.5,3.2V33h-11.8v0.8c0,0.8,0.1,1.6,0.4,2.3
						c0.2,0.7,0.6,1.3,1,1.8c0.4,0.5,1,0.9,1.6,1.2c0.6,0.3,1.4,0.4,2.2,0.4c2.3,0,3.9-1.1,4.8-3.2l1.3,0.9
						c-0.5,1.2-1.3,2.1-2.4,2.8C309.8,40.6,308.5,41,307,41z M306.9,25.8c-0.8,0-1.5,0.1-2.1,0.4c-0.6,0.3-1.2,0.7-1.6,1.2
						c-0.4,0.5-0.8,1.1-1,1.8s-0.4,1.5-0.4,2.3v0.2h9.9v-0.3c0-0.8-0.1-1.6-0.3-2.3c-0.2-0.7-0.6-1.3-1-1.8s-0.9-0.9-1.5-1.1
						S307.6,25.8,306.9,25.8z"/>
					<path class="st4" d="M315.8,24.6h1.9l4.9,14.1h0.1l4.9-14.1h1.8l-5.8,16h-2L315.8,24.6z"/>
					<path class="st4" d="M338.4,41c-1.1,0-2-0.2-2.9-0.6c-0.9-0.4-1.6-0.9-2.2-1.6c-0.6-0.7-1.1-1.6-1.4-2.6
						c-0.3-1-0.5-2.2-0.5-3.5c0-1.3,0.2-2.5,0.5-3.5c0.3-1,0.8-1.9,1.4-2.6c0.6-0.7,1.3-1.3,2.2-1.7c0.9-0.4,1.8-0.6,2.9-0.6
						c1,0,1.9,0.2,2.8,0.6c0.8,0.4,1.5,0.9,2.1,1.6c0.6,0.7,1,1.5,1.4,2.5c0.3,1,0.5,2,0.5,3.2V33h-11.8v0.8c0,0.8,0.1,1.6,0.4,2.3
						c0.2,0.7,0.6,1.3,1,1.8c0.4,0.5,1,0.9,1.6,1.2c0.6,0.3,1.4,0.4,2.2,0.4c2.3,0,3.9-1.1,4.8-3.2l1.3,0.9
						c-0.5,1.2-1.3,2.1-2.4,2.8C341.2,40.6,339.9,41,338.4,41z M338.3,25.8c-0.8,0-1.5,0.1-2.1,0.4c-0.6,0.3-1.2,0.7-1.6,1.2
						c-0.4,0.5-0.8,1.1-1,1.8s-0.4,1.5-0.4,2.3v0.2h9.9v-0.3c0-0.8-0.1-1.6-0.3-2.3c-0.2-0.7-0.6-1.3-1-1.8s-0.9-0.9-1.5-1.1
						S339,25.8,338.3,25.8z"/>
					<path class="st4" d="M349.6,40.6v-16h1.8v2.5h0.1c0.4-0.8,0.9-1.5,1.7-2.1c0.7-0.6,1.8-0.8,3.1-0.8c1.7,0,3,0.5,4,1.6
						c0.9,1.1,1.4,2.6,1.4,4.5v10.3h-1.8v-10c0-1.6-0.3-2.8-1-3.6c-0.7-0.8-1.7-1.2-3-1.2c-0.6,0-1.1,0.1-1.6,0.2
						c-0.5,0.1-1,0.4-1.4,0.7c-0.4,0.3-0.7,0.7-1,1.1s-0.4,1-0.4,1.5v11.2H349.6z"/>
				</g>
			</g>
			<g id="Path_656">
				<path class="st2" d="M182,1.6h401.2l33.3,31.9L583.2,64H182l-28.6-30.5L182,1.6z"/>
				<path class="st5" d="M582.2,61.4l30.5-27.9L582.2,4.2H183.1L157,33.5l26.1,27.9H582.2 M583.2,64H182l-28.6-30.5L182,1.6h401.2
					l33.3,31.9L583.2,64z"/>
			</g>
		</g>
	</g>
</g>
</svg>
