<?xml version="1.0" encoding="utf-8"?>
<!-- Generator: Adobe Illustrator 22.1.0, SVG Export Plug-In . SVG Version: 6.00 Build 0)  -->
<svg version="1.1" id="Layer_1" xmlns="http://www.w3.org/2000/svg" xmlns:xlink="http://www.w3.org/1999/xlink" x="0px" y="0px"
	 viewBox="0 0 607.4 65" style="enable-background:new 0 0 607.4 65;" xml:space="preserve">
<style type="text/css">
	.st0{enable-background:new    ;}
	.st1{fill:#1A1A30;}
	.st2{fill:none;}
	.st3{fill:#009999;}
	.st4{fill:#9F4B4B;}
</style>
<title>_</title>
<g>
	<g>
		<g id="Group_706">
			<g id="johndoe_gmail.com">
				<g class="st0">
					<path class="st1" d="M102.3,25.5h2.4v18.1c0,1.1-0.3,2-0.8,2.6c-0.5,0.7-1.4,1-2.6,1h-1.6v-2.2h2.5V25.5z M103.5,21.8
						c-0.5,0-0.9-0.1-1.1-0.4s-0.3-0.6-0.3-1v-0.4c0-0.4,0.1-0.7,0.3-1c0.2-0.3,0.6-0.4,1.1-0.4s0.9,0.1,1.1,0.4
						c0.2,0.3,0.3,0.6,0.3,1v0.4c0,0.4-0.1,0.7-0.3,1C104.4,21.7,104,21.8,103.5,21.8z"/>
					<path class="st1" d="M115.8,41.5c-1.1,0-2-0.2-2.9-0.6c-0.9-0.4-1.6-0.9-2.2-1.7c-0.6-0.7-1.1-1.6-1.4-2.6s-0.5-2.1-0.5-3.4
						c0-1.2,0.2-2.4,0.5-3.4s0.8-1.9,1.4-2.6c0.6-0.7,1.4-1.3,2.2-1.7c0.9-0.4,1.8-0.6,2.9-0.6s2,0.2,2.9,0.6
						c0.9,0.4,1.6,0.9,2.2,1.7c0.6,0.7,1.1,1.6,1.5,2.6s0.5,2.1,0.5,3.4c0,1.3-0.2,2.4-0.5,3.4s-0.8,1.9-1.5,2.6
						c-0.6,0.7-1.4,1.3-2.2,1.7S116.8,41.5,115.8,41.5z M115.8,39.4c1.3,0,2.4-0.4,3.2-1.2c0.8-0.8,1.2-2,1.2-3.7v-2.2
						c0-1.7-0.4-2.9-1.2-3.7c-0.8-0.8-1.9-1.2-3.2-1.2s-2.4,0.4-3.2,1.2s-1.2,2-1.2,3.7v2.2c0,1.7,0.4,2.9,1.2,3.7
						C113.4,39,114.4,39.4,115.8,39.4z"/>
					<path class="st1" d="M126.8,18.7h2.4V28h0.1c0.4-0.9,0.9-1.6,1.6-2.1c0.7-0.5,1.6-0.8,2.8-0.8c1.6,0,2.9,0.5,3.8,1.6
						c0.9,1,1.4,2.5,1.4,4.4v10h-2.4v-9.6c0-2.8-1.2-4.2-3.5-4.2c-0.5,0-1,0.1-1.4,0.2c-0.5,0.1-0.9,0.3-1.2,0.5
						c-0.4,0.2-0.7,0.6-0.9,0.9c-0.2,0.4-0.3,0.8-0.3,1.3v10.9h-2.4V18.7z"/>
					<path class="st1" d="M144.1,41.2V25.5h2.4V28h0.1c0.4-0.9,0.9-1.6,1.6-2.1c0.7-0.5,1.6-0.8,2.8-0.8c1.6,0,2.9,0.5,3.8,1.6
						c0.9,1,1.4,2.5,1.4,4.4v10h-2.4v-9.6c0-2.8-1.2-4.2-3.5-4.2c-0.5,0-1,0.1-1.4,0.2c-0.5,0.1-0.9,0.3-1.2,0.5
						c-0.4,0.2-0.7,0.6-0.9,0.9c-0.2,0.4-0.3,0.8-0.3,1.3v10.9H144.1z"/>
					<path class="st1" d="M171.3,38.7h-0.1c-1,1.9-2.5,2.9-4.6,2.9c-1,0-1.9-0.2-2.6-0.6s-1.5-0.9-2-1.6c-0.6-0.7-1-1.6-1.3-2.6
						c-0.3-1-0.4-2.1-0.4-3.4s0.1-2.4,0.4-3.4c0.3-1,0.7-1.9,1.3-2.6s1.2-1.3,2-1.6c0.8-0.4,1.7-0.6,2.6-0.6c1.1,0,2,0.2,2.8,0.7
						c0.8,0.5,1.4,1.2,1.8,2.2h0.1v-9.3h2.4v22.4h-2.4V38.7z M167.3,39.4c0.5,0,1.1-0.1,1.6-0.2c0.5-0.1,0.9-0.4,1.3-0.6
						c0.4-0.3,0.7-0.6,0.9-1c0.2-0.4,0.3-0.8,0.3-1.4v-5.9c0-0.4-0.1-0.8-0.3-1.2s-0.5-0.7-0.9-1c-0.4-0.3-0.8-0.5-1.3-0.6
						c-0.5-0.2-1-0.2-1.6-0.2c-1.4,0-2.5,0.4-3.2,1.3s-1.2,2-1.2,3.4v2.7c0,1.4,0.4,2.5,1.2,3.4S165.9,39.4,167.3,39.4z"/>
					<path class="st1" d="M184.8,41.5c-1.1,0-2-0.2-2.9-0.6c-0.9-0.4-1.6-0.9-2.2-1.7c-0.6-0.7-1.1-1.6-1.4-2.6s-0.5-2.1-0.5-3.4
						c0-1.2,0.2-2.4,0.5-3.4s0.8-1.9,1.4-2.6c0.6-0.7,1.4-1.3,2.2-1.7c0.9-0.4,1.8-0.6,2.9-0.6s2,0.2,2.9,0.6
						c0.9,0.4,1.6,0.9,2.2,1.7c0.6,0.7,1.1,1.6,1.5,2.6s0.5,2.1,0.5,3.4c0,1.3-0.2,2.4-0.5,3.4s-0.8,1.9-1.5,2.6
						c-0.6,0.7-1.4,1.3-2.2,1.7S185.8,41.5,184.8,41.5z M184.8,39.4c1.3,0,2.4-0.4,3.2-1.2c0.8-0.8,1.2-2,1.2-3.7v-2.2
						c0-1.7-0.4-2.9-1.2-3.7c-0.8-0.8-1.9-1.2-3.2-1.2s-2.4,0.4-3.2,1.2s-1.2,2-1.2,3.7v2.2c0,1.7,0.4,2.9,1.2,3.7
						C182.4,39,183.5,39.4,184.8,39.4z"/>
					<path class="st1" d="M201.7,41.5c-1.1,0-2-0.2-2.9-0.6s-1.6-0.9-2.2-1.7c-0.6-0.7-1.1-1.6-1.4-2.6c-0.3-1-0.5-2.1-0.5-3.4
						c0-1.2,0.2-2.4,0.5-3.4c0.3-1,0.8-1.9,1.4-2.6c0.6-0.7,1.4-1.3,2.2-1.7c0.9-0.4,1.8-0.6,2.9-0.6c1.1,0,2,0.2,2.8,0.6
						c0.8,0.4,1.5,0.9,2.1,1.6s1,1.5,1.3,2.4s0.5,1.9,0.5,3.1v1.1h-11.3v0.7c0,0.7,0.1,1.3,0.3,1.9c0.2,0.6,0.5,1.1,0.9,1.5
						c0.4,0.4,0.9,0.8,1.5,1c0.6,0.2,1.2,0.4,2,0.4c1,0,1.9-0.2,2.6-0.7c0.7-0.5,1.3-1.1,1.7-2l1.7,1.3c-0.5,1.1-1.3,1.9-2.4,2.6
						C204.5,41.2,203.2,41.5,201.7,41.5z M201.7,27.2c-0.7,0-1.3,0.1-1.8,0.3c-0.5,0.2-1,0.6-1.4,1c-0.4,0.4-0.7,0.9-0.9,1.5
						c-0.2,0.6-0.3,1.2-0.3,1.9v0.2h8.6v-0.3c0-1.4-0.4-2.5-1.1-3.3C204,27.6,203,27.2,201.7,27.2z"/>
					<path class="st1" d="M230.5,44.8h-7c-1.7,0-3.3-0.3-4.7-0.9c-1.4-0.6-2.6-1.4-3.7-2.5c-1-1.1-1.8-2.4-2.4-3.9
						c-0.6-1.5-0.8-3.2-0.8-5.1c0-1.9,0.3-3.6,0.8-5.2c0.6-1.6,1.4-2.9,2.4-4s2.3-2,3.7-2.6c1.5-0.6,3.1-0.9,4.9-0.9
						c1.4,0,2.8,0.2,4.2,0.7c1.4,0.4,2.6,1.1,3.6,2.1c1,0.9,1.9,2.1,2.5,3.6s1,3.3,1,5.4c0,1.1-0.1,2-0.3,3
						c-0.2,0.9-0.5,1.7-0.9,2.4c-0.4,0.7-1,1.3-1.6,1.7c-0.7,0.4-1.5,0.6-2.4,0.6c-1,0-1.7-0.2-2.2-0.7c-0.5-0.5-0.8-1.1-0.9-1.9
						h-0.1c-0.4,0.8-0.9,1.4-1.5,1.9c-0.6,0.5-1.3,0.7-2.3,0.7c-0.7,0-1.4-0.1-2-0.4c-0.6-0.3-1.2-0.7-1.7-1.2
						c-0.5-0.5-0.9-1.2-1.2-2.1s-0.4-1.8-0.4-3c0-1.1,0.1-2.1,0.4-3s0.7-1.5,1.2-2.1s1-1,1.7-1.2c0.6-0.3,1.3-0.4,2-0.4
						c0.9,0,1.7,0.2,2.2,0.7c0.5,0.5,1,1,1.2,1.7h0.1V26h2.1v9.3c0,0.8,0.1,1.3,0.4,1.6s0.7,0.4,1.3,0.4c1,0,1.7-0.5,2.2-1.5
						s0.7-2.3,0.7-4v-1.4c0-1.3-0.2-2.6-0.7-3.7c-0.5-1.1-1.1-2-2-2.8c-0.8-0.8-1.8-1.4-2.9-1.8c-1.1-0.4-2.3-0.6-3.6-0.6
						c-1.5,0-2.8,0.3-4,0.8c-1.2,0.5-2.2,1.2-3.1,2.1c-0.9,0.9-1.5,2-2,3.2c-0.5,1.2-0.7,2.5-0.7,3.9v1.8c0,1.4,0.2,2.8,0.7,3.9
						c0.5,1.2,1.1,2.2,2,3.1c0.8,0.9,1.8,1.5,3,2c1.2,0.5,2.5,0.7,3.9,0.7h7V44.8z M223.2,37.1c1.1,0,1.9-0.3,2.4-0.8
						c0.5-0.5,0.8-1.2,0.8-2.2v-3.7c0-0.8-0.3-1.4-0.8-1.9c-0.5-0.5-1.3-0.8-2.4-0.8c-1.1,0-1.9,0.3-2.4,0.9s-0.8,1.5-0.8,2.5v2.4
						c0,1.1,0.3,1.9,0.8,2.5C221.3,36.8,222.1,37.1,223.2,37.1z"/>
					<path class="st1" d="M252.7,42.9c0,1.6-0.6,2.8-1.9,3.6s-3.2,1.1-5.7,1.1c-2.4,0-4.2-0.3-5.3-1c-1.1-0.7-1.6-1.6-1.6-2.8
						c0-0.8,0.2-1.5,0.7-2c0.4-0.5,1.1-0.8,1.8-1v-0.3c-0.9-0.4-1.4-1.2-1.4-2.2c0-0.8,0.3-1.4,0.8-1.8c0.5-0.4,1.2-0.7,1.9-0.9
						v-0.1c-0.9-0.4-1.7-1.1-2.2-1.9c-0.5-0.8-0.8-1.8-0.8-2.9c0-0.8,0.1-1.5,0.4-2.2c0.3-0.7,0.7-1.2,1.2-1.7
						c0.5-0.5,1.1-0.8,1.9-1.1c0.7-0.3,1.5-0.4,2.4-0.4c1.1,0,2.1,0.2,3,0.6v-0.3c0-0.6,0.1-1.1,0.4-1.5c0.3-0.4,0.7-0.6,1.4-0.6
						h2.3v2.2h-3v1c0.6,0.5,1,1.1,1.3,1.7c0.3,0.7,0.5,1.4,0.5,2.3c0,0.8-0.1,1.5-0.4,2.2c-0.3,0.7-0.7,1.2-1.2,1.7
						c-0.5,0.5-1.1,0.8-1.9,1.1c-0.7,0.3-1.5,0.4-2.4,0.4c-0.5,0-1,0-1.5-0.2c-0.5,0.1-1,0.3-1.4,0.6c-0.4,0.3-0.6,0.7-0.6,1.1
						c0,0.5,0.2,0.8,0.7,0.9c0.4,0.2,1,0.2,1.7,0.2h3.3c1.9,0,3.4,0.4,4.2,1.1C252.3,40.6,252.7,41.6,252.7,42.9z M250.4,43.1
						c0-0.6-0.2-1.1-0.7-1.5c-0.5-0.4-1.3-0.6-2.5-0.6H242c-1,0.4-1.5,1.2-1.5,2.1c0,0.7,0.3,1.3,0.8,1.8s1.4,0.7,2.6,0.7h2.2
						c1.4,0,2.4-0.2,3.2-0.6S250.4,43.9,250.4,43.1z M245,34c1,0,1.9-0.2,2.5-0.7c0.6-0.5,0.9-1.3,0.9-2.3v-0.9c0-1-0.3-1.8-0.9-2.3
						c-0.6-0.5-1.4-0.7-2.5-0.7s-1.9,0.2-2.5,0.7c-0.6,0.5-0.9,1.3-0.9,2.3V31c0,1,0.3,1.8,0.9,2.3C243.2,33.8,244,34,245,34z"/>
					<path class="st1" d="M255.5,41.2V25.5h2.4V28h0.1c0.2-0.4,0.4-0.8,0.6-1.1c0.2-0.3,0.5-0.7,0.8-0.9c0.3-0.3,0.7-0.5,1.2-0.6
						c0.4-0.1,1-0.2,1.6-0.2c1,0,2,0.2,2.9,0.7c0.9,0.5,1.5,1.3,1.9,2.4h0.1c0.3-0.8,0.8-1.6,1.6-2.2c0.8-0.6,1.8-0.9,3.2-0.9
						c1.6,0,2.8,0.5,3.7,1.6c0.9,1,1.3,2.5,1.3,4.4v10h-2.4v-9.6c0-1.4-0.3-2.5-0.8-3.2c-0.5-0.7-1.4-1.1-2.6-1.1
						c-0.5,0-0.9,0.1-1.4,0.2c-0.4,0.1-0.8,0.3-1.2,0.5c-0.3,0.2-0.6,0.6-0.8,0.9c-0.2,0.4-0.3,0.8-0.3,1.3v10.9h-2.4v-9.6
						c0-1.4-0.3-2.5-0.8-3.2s-1.4-1.1-2.5-1.1c-0.5,0-1,0.1-1.4,0.2c-0.4,0.1-0.8,0.3-1.2,0.5c-0.3,0.2-0.6,0.6-0.8,0.9
						c-0.2,0.4-0.3,0.8-0.3,1.3v10.9H255.5z"/>
					<path class="st1" d="M293.4,41.2c-0.9,0-1.6-0.2-2-0.7c-0.4-0.5-0.6-1.1-0.7-1.8h-0.2c-0.3,1-0.9,1.7-1.7,2.2s-1.7,0.7-2.8,0.7
						c-1.7,0-2.9-0.4-3.9-1.3c-0.9-0.8-1.4-2-1.4-3.5c0-1.5,0.5-2.6,1.6-3.4c1.1-0.8,2.8-1.2,5.1-1.2h3.1v-1.5c0-1.1-0.3-2-0.9-2.5
						c-0.6-0.6-1.5-0.9-2.8-0.9c-1,0-1.7,0.2-2.4,0.6c-0.6,0.4-1.2,1-1.6,1.7l-1.5-1.4c0.4-0.8,1.1-1.6,2-2.2s2.1-0.9,3.5-0.9
						c1.9,0,3.4,0.5,4.4,1.4c1.1,0.9,1.6,2.2,1.6,3.9V39h1.8v2.2H293.4z M286.4,39.5c0.6,0,1.2-0.1,1.7-0.2c0.5-0.1,0.9-0.3,1.3-0.6
						c0.4-0.3,0.6-0.6,0.8-0.9c0.2-0.3,0.3-0.7,0.3-1.1V34h-3.2c-1.4,0-2.4,0.2-3,0.6c-0.6,0.4-1,1-1,1.8V37c0,0.8,0.3,1.4,0.8,1.8
						C284.7,39.3,285.5,39.5,286.4,39.5z"/>
					<path class="st1" d="M299.4,21.8c-0.5,0-0.9-0.1-1.1-0.4s-0.3-0.6-0.3-1v-0.4c0-0.4,0.1-0.7,0.3-1c0.2-0.3,0.6-0.4,1.1-0.4
						s0.9,0.1,1.1,0.4c0.2,0.3,0.3,0.6,0.3,1v0.4c0,0.4-0.1,0.7-0.3,1C300.3,21.7,300,21.8,299.4,21.8z M298.2,25.5h2.4v15.7h-2.4
						V25.5z"/>
					<path class="st1" d="M308.4,41.2c-0.8,0-1.5-0.2-1.9-0.7c-0.4-0.5-0.7-1.1-0.7-1.8V18.7h2.4V39h2.3v2.2H308.4z"/>
					<path class="st1" d="M315.9,41.5c-0.6,0-1.1-0.2-1.4-0.5s-0.4-0.7-0.4-1.3v-0.4c0-0.5,0.1-1,0.4-1.3c0.3-0.3,0.8-0.5,1.4-0.5
						c0.6,0,1.1,0.2,1.4,0.5c0.3,0.3,0.4,0.7,0.4,1.3v0.4c0,0.5-0.1,1-0.4,1.3C317,41.4,316.5,41.5,315.9,41.5z"/>
					<path class="st1" d="M328.1,41.5c-1.1,0-2.1-0.2-2.9-0.6s-1.6-0.9-2.2-1.6c-0.6-0.7-1.1-1.6-1.4-2.6c-0.3-1-0.5-2.1-0.5-3.4
						s0.2-2.4,0.5-3.4c0.3-1,0.8-1.9,1.4-2.6c0.6-0.7,1.3-1.3,2.2-1.6c0.9-0.4,1.9-0.6,2.9-0.6c1.6,0,2.8,0.3,3.7,1
						c0.9,0.7,1.6,1.6,2.1,2.7l-2,1c-0.3-0.8-0.7-1.4-1.4-1.9c-0.6-0.4-1.5-0.7-2.4-0.7c-0.7,0-1.4,0.1-1.9,0.3s-1,0.6-1.4,1
						c-0.4,0.4-0.6,0.9-0.8,1.5s-0.3,1.2-0.3,1.9v2.7c0,1.4,0.4,2.5,1.1,3.4c0.7,0.9,1.8,1.3,3.3,1.3c2,0,3.4-0.9,4.2-2.7l1.8,1.2
						c-0.5,1.1-1.3,2-2.3,2.7C330.9,41.2,329.6,41.5,328.1,41.5z"/>
					<path class="st1" d="M343.3,41.5c-1.1,0-2-0.2-2.9-0.6c-0.9-0.4-1.6-0.9-2.2-1.7s-1.1-1.6-1.4-2.6s-0.5-2.1-0.5-3.4
						c0-1.2,0.2-2.4,0.5-3.4s0.8-1.9,1.4-2.6s1.4-1.3,2.2-1.7c0.9-0.4,1.8-0.6,2.9-0.6c1.1,0,2,0.2,2.9,0.6c0.9,0.4,1.6,0.9,2.2,1.7
						s1.1,1.6,1.5,2.6s0.5,2.1,0.5,3.4c0,1.3-0.2,2.4-0.5,3.4s-0.8,1.9-1.5,2.6s-1.4,1.3-2.2,1.7S344.3,41.5,343.3,41.5z
						 M343.3,39.4c1.3,0,2.4-0.4,3.2-1.2c0.8-0.8,1.2-2,1.2-3.7v-2.2c0-1.7-0.4-2.9-1.2-3.7c-0.8-0.8-1.9-1.2-3.2-1.2
						s-2.4,0.4-3.2,1.2s-1.2,2-1.2,3.7v2.2c0,1.7,0.4,2.9,1.2,3.7C340.9,39,342,39.4,343.3,39.4z"/>
					<path class="st1" d="M354.4,41.2V25.5h2.4V28h0.1c0.2-0.4,0.4-0.8,0.6-1.1c0.2-0.3,0.5-0.7,0.8-0.9c0.3-0.3,0.7-0.5,1.2-0.6
						c0.4-0.1,1-0.2,1.6-0.2c1,0,2,0.2,2.9,0.7c0.9,0.5,1.5,1.3,1.9,2.4h0.1c0.3-0.8,0.8-1.6,1.6-2.2c0.8-0.6,1.8-0.9,3.2-0.9
						c1.6,0,2.8,0.5,3.7,1.6c0.9,1,1.3,2.5,1.3,4.4v10h-2.4v-9.6c0-1.4-0.3-2.5-0.8-3.2c-0.5-0.7-1.4-1.1-2.6-1.1
						c-0.5,0-0.9,0.1-1.4,0.2c-0.4,0.1-0.8,0.3-1.2,0.5c-0.3,0.2-0.6,0.6-0.8,0.9s-0.3,0.8-0.3,1.3v10.9h-2.4v-9.6
						c0-1.4-0.3-2.5-0.8-3.2s-1.4-1.1-2.5-1.1c-0.5,0-1,0.1-1.4,0.2c-0.4,0.1-0.8,0.3-1.2,0.5c-0.3,0.2-0.6,0.6-0.8,0.9
						c-0.2,0.4-0.3,0.8-0.3,1.3v10.9H354.4z"/>
				</g>
			</g>
			<g id="ic_check">
				<rect id="rectangle" x="0.3" y="6.5" class="st2" width="52" height="52"/>
				<path id="path" class="st3" d="M19.8,41.6l-9.1-9.1l-3,3l12.1,12.2l26-26l-3-3L19.8,41.6z"/>
			</g>
			<path id="Path_366" class="st4" d="M585.5,37.9c3.1,0.1,5.6-2.4,5.7-5.4c-0.2-3.1-2.9-5.5-6-5.4c-2.9,0.2-5.2,2.5-5.4,5.4
				C579.9,35.6,582.4,38,585.5,37.9z M573.8,20.6c2-1.7,4.3-2.9,6.8-3.5l2.3-6.2h5.7l2.3,6.2c2.5,0.7,4.8,1.9,6.8,3.5l6.8-1.4
				l2.8,4.9l-4.6,4.9c0.2,1.2,0.3,2.3,0.3,3.5c0,1.1-0.3,2.4-0.3,3.5l4.6,4.9l-2.8,4.9l-6.8-1.3c-2,1.7-4.3,2.9-6.8,3.5l-2.3,6.2
				h-5.7l-2.3-6.2c-2.5-0.7-4.8-1.9-6.8-3.5l-6.8,1.3l-2.8-4.9l4.5-4.9c-0.2-1.2-0.3-2.3-0.3-3.5c0-1.1,0.3-2.4,0.3-3.5l-4.6-4.9
				l2.9-4.8L573.8,20.6z"/>
			<g id="Path_655">
				<path class="st2" d="M96.7,0h411.2l34.1,33.3L507.8,65H96.7L67.4,33.3L96.7,0z"/>
				<path class="st4" d="M507,62.8l31.8-29.6L506.9,2.2H97.6L70.3,33.2l27.3,29.6H507 M507.9,65H96.7L67.4,33.3L96.7,0h411.2
					l34.1,33.3L507.9,65z"/>
			</g>
		</g>
	</g>
</g>
</svg>
