<?xml version="1.0" encoding="utf-8"?>
<!-- Generator: Adobe Illustrator 22.1.0, SVG Export Plug-In . SVG Version: 6.00 Build 0)  -->
<svg version="1.1" id="Layer_1" xmlns="http://www.w3.org/2000/svg" xmlns:xlink="http://www.w3.org/1999/xlink" x="0px" y="0px"
	 viewBox="0 0 135 66" style="enable-background:new 0 0 135 66;" xml:space="preserve">
<style type="text/css">
	.st0{fill:#9F4B4B;}
	.st1{fill:#FFFFFF;}
	.st2{fill:none;stroke:#9F4B4B;}
	.st3{opacity:0.54;enable-background:new    ;}
	.st4{enable-background:new    ;}
</style>
<title>_</title>
<g id="Group_411">
	<rect id="Rectangle_1558" x="0.2" y="0.5" class="st0" width="91.2" height="65"/>
	<g id="Rectangle_1559">
		<rect x="132.2" y="0.5" class="st1" width="3" height="65"/>
		<rect x="133.2" y="1.6" class="st2" width="0.9" height="62.8"/>
	</g>
	<line id="Line_54" class="st2" x1="103.4" y1="33" x2="122.6" y2="33"/>
	<g id="Group_232">
		<path id="path" class="st3" d="M104.9,23.3l8.1-8.1l8.2,8.1l2.5-2.5L113,10.3l-10.6,10.5L104.9,23.3z"/>
	</g>
	<g id="Group_233">
		<path id="path-2" class="st3" d="M121.2,42.1l-8.2,8.1l-8.2-8.1l-2.5,2.5L113,55.1l10.6-10.5L121.2,42.1z"/>
	</g>
</g>
<g class="st4">
	<path class="st1" d="M24,55.1c-2.6,0-4.9-0.5-6.8-1.5c-1.9-1-3.5-2.4-4.7-4.2c-1.2-1.8-2.2-4.1-2.8-6.8c-0.6-2.7-0.9-5.7-0.9-9.2
		c0-3.4,0.3-6.4,0.9-9.1c0.6-2.7,1.5-5,2.8-6.8c1.2-1.8,2.8-3.2,4.7-4.2c1.9-1,4.2-1.5,6.8-1.5c5.2,0,9,1.9,11.5,5.7
		c2.5,3.8,3.7,9.1,3.7,16c0,6.8-1.2,12.2-3.7,16C33,53.2,29.2,55.1,24,55.1z M24,49.4c1.4,0,2.7-0.3,3.7-0.9c1-0.6,1.8-1.4,2.5-2.5
		c0.6-1.1,1.1-2.4,1.4-3.9c0.3-1.5,0.4-3.2,0.4-5v-7.3c0-1.8-0.1-3.5-0.4-5c-0.3-1.5-0.7-2.8-1.4-3.9c-0.6-1.1-1.5-1.9-2.5-2.5
		s-2.3-0.9-3.7-0.9s-2.7,0.3-3.7,0.9s-1.9,1.4-2.5,2.5c-0.6,1.1-1.1,2.4-1.4,3.9c-0.3,1.5-0.4,3.2-0.4,5v7.3c0,1.8,0.1,3.5,0.4,5
		c0.3,1.5,0.7,2.8,1.4,3.9c0.6,1.1,1.5,1.9,2.5,2.5C21.3,49.1,22.6,49.4,24,49.4z"/>
	<path class="st1" d="M60,55.1c-2.6,0-4.9-0.5-6.8-1.5c-1.9-1-3.5-2.4-4.7-4.2c-1.2-1.8-2.2-4.1-2.8-6.8c-0.6-2.7-0.9-5.7-0.9-9.2
		c0-3.4,0.3-6.4,0.9-9.1c0.6-2.7,1.5-5,2.8-6.8c1.2-1.8,2.8-3.2,4.7-4.2c1.9-1,4.2-1.5,6.8-1.5c5.2,0,9,1.9,11.5,5.7
		c2.5,3.8,3.7,9.1,3.7,16c0,6.8-1.2,12.2-3.7,16C69,53.2,65.2,55.1,60,55.1z M60,49.4c1.4,0,2.7-0.3,3.7-0.9c1-0.6,1.8-1.4,2.5-2.5
		c0.6-1.1,1.1-2.4,1.4-3.9c0.3-1.5,0.4-3.2,0.4-5v-7.3c0-1.8-0.1-3.5-0.4-5c-0.3-1.5-0.7-2.8-1.4-3.9c-0.6-1.1-1.5-1.9-2.5-2.5
		s-2.3-0.9-3.7-0.9s-2.7,0.3-3.7,0.9s-1.9,1.4-2.5,2.5c-0.6,1.1-1.1,2.4-1.4,3.9c-0.3,1.5-0.4,3.2-0.4,5v7.3c0,1.8,0.1,3.5,0.4,5
		c0.3,1.5,0.7,2.8,1.4,3.9c0.6,1.1,1.5,1.9,2.5,2.5C57.3,49.1,58.6,49.4,60,49.4z"/>
</g>
</svg>
